# This file uses centimeters as units for non-parametric coordinates.

mtllib glass_case.mtl
g default
v -1.573900 10.834038 -1.583009
v 1.573900 10.834038 -1.583009
v -1.573900 7.686293 -1.564737
v 1.573900 7.686293 -1.564737
v -1.573900 7.704565 1.583009
v 1.573900 7.704565 1.583009
v -1.573900 10.852310 1.564737
v 1.573900 10.852310 1.564737
vt 0.375000 0.000000
vt 0.625000 0.000000
vt 0.625000 0.250000
vt 0.375000 0.250000
vt 0.375000 0.500000
vt 0.625000 0.500000
vt 0.625000 0.750000
vt 0.375000 0.750000
vt 0.625000 1.000000
vt 0.375000 1.000000
vt 0.875000 0.000000
vt 0.875000 0.250000
vt 0.125000 0.000000
vt 0.125000 0.250000
vn 0.000000 -0.005805 -0.999983
vn 0.000000 -0.005805 -0.999983
vn 0.000000 -0.005805 -0.999983
vn 0.000000 -0.005805 -0.999983
vn 0.000000 0.005805 0.999983
vn 0.000000 0.005805 0.999983
vn 0.000000 0.005805 0.999983
vn 0.000000 0.005805 0.999983
vn 0.000000 0.999983 -0.005805
vn 0.000000 0.999983 -0.005805
vn 0.000000 0.999983 -0.005805
vn 0.000000 0.999983 -0.005805
vn 1.000000 -0.000000 0.000000
vn 1.000000 -0.000000 0.000000
vn 1.000000 -0.000000 0.000000
vn 1.000000 -0.000000 0.000000
vn -1.000000 0.000000 0.000000
vn -1.000000 0.000000 0.000000
vn -1.000000 0.000000 0.000000
vn -1.000000 0.000000 0.000000
s off
g polySurface1 pCube1
usemtl initialShadingGroup
f 1/1/1 2/2/2 4/3/3 3/4/4
f 5/5/5 6/6/6 8/7/7 7/8/8
f 7/8/9 8/7/10 2/9/11 1/10/12
f 2/2/13 8/11/14 6/12/15 4/3/16
f 7/13/17 1/1/18 3/4/19 5/14/20
